<?xml version="1.0" encoding="UTF-8"?>
<svg id="_图层_1" data-name="图层_1" xmlns="http://www.w3.org/2000/svg" version="1.1" xmlns:xlink="http://www.w3.org/1999/xlink" viewBox="0 0 25 25">
  <!-- Generator: Adobe Illustrator 29.0.0, SVG Export Plug-In . SVG Version: 2.1.0 Build 186)  -->
  <defs>
    <style>
      .st0 {
        fill: #fff;
      }

      .st1 {
        fill: url(#_未命名的渐变_12);
      }
    </style>
    <linearGradient id="_未命名的渐变_12" data-name="未命名的渐变 12" x1="12.5" y1="1.89" x2="12.5" y2="23.46" gradientUnits="userSpaceOnUse">
      <stop offset=".07" stop-color="#fff"/>
      <stop offset=".37" stop-color="#000"/>
      <stop offset=".63" stop-color="#000"/>
      <stop offset="1" stop-color="#fff"/>
    </linearGradient>
  </defs>
  <path class="st1" d="M12.5,24.3c3.25,0,6.2-1.32,8.34-3.46.13-.13.26-.27.39-.41.06-.07.13-.14.19-.21.18-.21.36-.43.53-.66.17-.23.33-.46.49-.7.15-.24.3-.48.43-.73h0c.13-.25.26-.51.38-.77h0c.67-1.48,1.04-3.12,1.04-4.85,0-2.89-1.04-5.54-2.78-7.6-1.91-2.27-4.66-3.81-7.76-4.14-.41-.04-.83-.07-1.25-.07C5.99.7.7,6,.7,12.5v10.41h2.78v-10.41C3.48,7.53,7.53,3.48,12.5,3.48s9.02,4.05,9.02,9.02c0,2.49-1.01,4.74-2.64,6.37-1.63,1.63-3.89,2.65-6.37,2.65h-1.25v2.71l1.25.07Z"/>
  <path class="st0" d="M12.5.7C5.99.7.7,6,.7,12.5c0,2.89,1.04,5.54,2.78,7.6,1.91,2.27,4.66,3.81,7.77,4.14h0c.41.04.83.07,1.25.07.83,0,1.64-.09,2.42-.25.16-.03.31-.07.46-.11,2.09-.53,3.96-1.62,5.45-3.1.13-.13.26-.27.39-.41.16-.18.32-.37.48-.56.08-.1.17-.21.25-.32h0c.07-.1.15-.2.22-.3.02-.03.04-.06.06-.09.07-.1.14-.2.2-.31.08-.12.15-.24.22-.36.07-.12.14-.25.21-.37h0c.13-.25.26-.51.38-.77.1-.22.19-.44.28-.66.03-.06.05-.12.07-.19.04-.11.08-.22.11-.34.03-.08.05-.17.08-.25.03-.1.06-.2.09-.3.03-.09.05-.19.07-.28.03-.12.06-.25.09-.37.01-.06.03-.13.04-.19,0-.04.01-.07.02-.11.02-.09.03-.17.04-.26.02-.1.03-.19.04-.28,0-.01,0-.03,0-.04.01-.1.03-.2.04-.3.05-.42.07-.85.07-1.28V2.09h-2.78v10.41c0,.87-.12,1.72-.36,2.52-.04.13-.08.25-.12.37-.02.07-.05.14-.07.21-.05.14-.1.27-.16.41-.03.07-.06.13-.09.2-.06.13-.12.27-.19.39-.27.52-.58,1.01-.94,1.46-.11.14-.23.28-.35.42-.17.19-.34.37-.52.54-.11.1-.21.2-.32.29-.93.8-2.02,1.42-3.22,1.79-.14.04-.28.08-.43.12h0c-.72.18-1.47.28-2.25.28-4.97,0-9.02-4.04-9.02-9.02S7.53,3.48,12.5,3.48h1.25V.77l-1.25-.07Z"/>
</svg>