<svg xmlns="http://www.w3.org/2000/svg" viewBox="0 0 823.93 132.81">
  <defs>
    <linearGradient id="g1" x1="65.72" y1="6.62" x2="65.73" y2="126.8" gradientUnits="userSpaceOnUse">
      <stop offset=".07" stop-color="#a80000"/>
      <stop offset=".37" stop-color="#800000"/>
      <stop offset=".63" stop-color="#4a0000"/>
      <stop offset="1" stop-color="#a80000"/>
    </linearGradient>
  </defs>
  <path fill="url(#g1)" d="M65.73,131.46c18.11,0,34.54-7.37,46.45-19.27.74-.74,1.47-1.51,2.18-2.28.35-.39.7-.79,1.06-1.19,1.02-1.19,2.01-2.42,2.96-3.68.95-1.27,1.85-2.57,2.71-3.91.85-1.33,1.66-2.7,2.42-4.09h.01c.75-1.41,1.46-2.83,2.12-4.28h.01c3.72-8.26,5.8-17.41,5.8-27.03,0-16.11-5.82-30.88-15.48-42.32C105.33,10.78,90.01,2.2,72.71.37c-2.29-.25-4.62-.37-6.98-.37C29.48,0,0,29.49,0,65.73v57.99h15.48v-57.99c0-27.7,22.54-50.24,50.25-50.24s50.24,22.54,50.24,50.24c0,13.86-5.64,26.42-14.73,35.51-9.09,9.1-21.65,14.74-35.51,14.74h-6.98v15.11l6.98.37Z"/>
  <path fill="#fff" d="M65.73,0C29.48,0,0,29.49,0,65.73c0,16.11,5.82,30.88,15.48,42.32,10.65,12.63,25.96,21.21,43.27,23.04h.02c2.29.25,4.61.37,6.96.37,4.63,0,9.15-.48,13.51-1.4.87-.18,1.73-.38,2.59-.59,11.66-2.95,22.09-9.02,30.35-17.28.74-.74,1.47-1.5,2.18-2.28.91-1.01,1.8-2.05,2.65-3.11.47-.58.93-1.16,1.37-1.76h.01c.41-.56.81-1.12,1.2-1.68.13-.17.25-.35.36-.52.4-.56.77-1.13,1.14-1.71.43-.66.84-1.34,1.24-2.02.41-.68.8-1.37,1.18-2.07h.01c.75-1.4,1.46-2.82,2.12-4.28.55-1.21,1.07-2.45,1.54-3.7.14-.35.26-.69.39-1.04.22-.62.44-1.24.64-1.87.15-.46.3-.92.43-1.39.18-.54.34-1.09.48-1.65.15-.52.29-1.04.41-1.56.17-.68.33-1.37.48-2.07.08-.35.15-.71.22-1.07.04-.21.08-.41.12-.62.09-.49.18-.97.25-1.46.09-.53.17-1.05.24-1.58.01-.08.02-.15.03-.23.08-.55.15-1.11.2-1.67.26-2.34.39-4.71.39-7.12V7.75h-15.49v57.98c0,4.86-.69,9.57-1.99,14.02-.2.7-.42,1.4-.66,2.08-.13.39-.26.78-.41,1.16-.28.77-.58,1.53-.9,2.28-.16.38-.32.75-.49,1.12-.33.74-.69,1.48-1.06,2.2-1.48,2.88-3.23,5.61-5.22,8.14-.63.8-1.28,1.58-1.96,2.34-.92,1.05-1.89,2.05-2.9,3.01-.59.56-1.18,1.1-1.79,1.63-5.17,4.47-11.26,7.92-17.94,10-.78.24-1.57.47-2.37.68h-.01c-4.01,1.03-8.21,1.58-12.54,1.58-27.71,0-50.25-22.53-50.25-50.24S38.02,15.49,65.73,15.49h6.98V.37l-6.98-.37Z"/>
  <g fill="#fff">
    <path d="M279.81,0h0c-14.56,0-26.36,11.8-26.36,26.36v79.78c0,14.56,11.8,26.36,26.36,26.36h0c14.56,0,26.36-11.8,26.36-26.36V26.36C306.17,11.8,294.37,0,279.81,0ZM289.52,105.93c0,5.36-4.35,9.71-9.71,9.71h0c-5.36,0-9.71-4.35-9.71-9.71V26.57c0-5.36,4.35-9.71,9.71-9.71h0c5.36,0,9.71,4.35,9.71,9.71v79.36Z"/>
    <path d="M172.7,27.09v25.74c0,13.62,11.05,24.67,24.67,24.67,3.34,0,6.05,2.71,6.05,6.05v20.66c0,5.53-4.48,10.01-10.01,10.01h-20.71v17.24h22.64c13.98,0,25.31-11.33,25.31-25.31v-20.98c0-13.13-10.64-23.78-23.78-23.78-3.83,0-6.94-3.11-6.94-6.94v-25.73c0-5.77,4.68-10.44,10.44-10.44h23.48V1.05h-25.12c-14.39,0-26.05,11.66-26.05,26.05Z"/>
    <path d="M359.94,1.05c-14.84,0-26.88,12.03-26.88,26.88v103.54h17.17V26.57c0-5.36,4.35-9.71,9.71-9.71s9.71,4.35,9.71,9.71v104.89h17.17V27.92c0-14.84-12.03-26.88-26.88-26.88Z"/>
    <path d="M716.92,1.05c-14.84,0-26.88,12.03-26.88,26.88v103.54h17.17V26.57c0-5.36,4.35-9.71,9.71-9.71s9.71,4.35,9.71,9.71v104.89h17.17V27.92c0-14.84-12.03-26.88-26.88-26.88Z"/>
    <path d="M636.79,1.05c-7.43,0-14.14,3.01-19.01,7.87-4.86,4.87-7.87,11.59-7.87,19.01v103.53h17.17v-46.82h19.42s0,46.82,0,46.82h17.17V27.93c0-14.85-12.03-26.88-26.87-26.88ZM646.5,67.61h-19.42V26.57c0-2.68,1.09-5.1,2.85-6.86s4.18-2.84,6.86-2.84c5.36,0,9.7,4.34,9.7,9.7v41.04Z"/>
    <path d="M566.49,107.29c0,5.36-4.35,9.71-9.71,9.71s-9.71-4.35-9.71-9.71V2.39h-17.17v104.89c0,5.36-4.35,9.71-9.71,9.71s-9.71-4.35-9.71-9.71V2.39h-17.17v103.54c0,14.84,12.03,26.88,26.88,26.88,7.07,0,13.49-2.73,18.29-7.19,4.8,4.46,11.22,7.19,18.29,7.19,14.84,0,26.88-12.03,26.88-26.88V2.39h-17.17v104.89Z"/>
    <path d="M442.34,1.05h-4.53c-13.59,0-24.61,11.02-24.61,24.61v81.32c0,13.83,11.21,25.04,25.04,25.04h3.68c13.83,0,25.04-11.21,25.04-25.04v-39.5h-26.88v17.16h9.28v20.88c0,5.2-4.21,9.41-9.41,9.41s-9.41-4.21-9.41-9.41V27.42c0-5.27,4.27-9.54,9.54-9.54s9.54,4.27,9.54,9.54v6.62h17.35v-8.38c0-13.59-11.02-24.61-24.61-24.61Z"/>
    <path d="M823.93,34.04v-8.38c0-13.59-11.02-24.61-24.61-24.61h-4.53c-13.59,0-24.61,11.02-24.61,24.61v81.32c0,13.83,11.21,25.04,25.04,25.04h3.68c13.83,0,25.04-11.21,25.04-25.04v-39.5h-26.88v17.16h9.28v20.88c0,5.2-4.21,9.41-9.41,9.41s-9.41-4.21-9.41-9.41V27.42c0-5.27,4.27-9.54,9.54-9.54s9.54,4.27,9.54,9.54v6.62h17.35Z"/>
  </g>
</svg>